# Blender 5.0.1
# www.blender.org
o cornell_box
v -1.684011 3.139799 -2.716226
v -0.104011 3.139409 -3.206226
v -0.594011 3.138134 -4.806226
v -2.174011 3.138533 -4.306226
v -1.684011 -0.160200 -2.713598
v -1.684011 3.139799 -2.716226
v -2.174011 3.138533 -4.306226
v -2.174011 -0.161466 -4.303598
v -2.174011 -0.161466 -4.303598
v -2.174011 3.138533 -4.306226
v -0.594011 3.138134 -4.806226
v -0.594011 -0.161864 -4.803598
v -0.594011 -0.161864 -4.803598
v -0.594011 3.138134 -4.806226
v -0.104011 3.139409 -3.206226
v -0.104011 -0.160590 -3.203598
v -0.104011 -0.160590 -3.203598
v -0.104011 3.139409 -3.206226
v -1.684011 3.139799 -2.716226
v -1.684011 -0.160200 -2.713598
v -2.950011 -0.162686 -5.835598
v 2.545989 -0.162686 -5.835598
v 2.545989 5.325313 -5.839967
v -3.014011 5.325313 -5.839967
v -3.014011 5.329765 -0.247969
v -3.014011 5.325313 -5.839969
v 2.545989 5.325313 -5.839969
v 2.545989 5.329765 -0.247969
v -2.982011 -0.158233 -0.243599
v 2.545989 -0.158233 -0.243599
v 2.545989 -0.162686 -5.835598
v -2.950011 -0.162686 -5.835598
v -2.982011 -0.158233 -0.243599
v -2.950011 -0.162686 -5.835598
v -3.014011 5.325313 -5.839969
v -3.014011 5.329765 -0.247969
v 2.545989 -0.162686 -5.835598
v 2.545989 -0.158233 -0.243599
v 2.545989 5.329765 -0.247969
v 2.545989 5.325313 -5.839969
v 1.245989 1.491249 -0.894913
v 1.725989 1.489975 -2.494912
v 0.145989 1.489601 -2.964912
v -0.354011 1.490859 -1.384912
v -0.354011 -0.159141 -1.383599
v -0.354011 1.490859 -1.384912
v 0.145989 1.489601 -2.964912
v 0.145989 -0.160399 -2.963598
v 1.245989 -0.158750 -0.893599
v 1.245989 1.491249 -0.894913
v -0.354011 1.490859 -1.384912
v -0.354011 -0.159141 -1.383599
v 1.725989 -0.160024 -2.493598
v 1.725989 1.489975 -2.494912
v 1.245989 1.491249 -0.894913
v 1.245989 -0.158750 -0.893599
v 0.145989 -0.160399 -2.963598
v 0.145989 1.489601 -2.964912
v 1.725989 1.489975 -2.494912
v 1.725989 -0.160024 -2.493598
vn -0.0000 1.0000 -0.0008
vn -0.9556 0.0002 0.2945
vn -0.3017 -0.0008 -0.9534
vn 0.9562 -0.0002 -0.2928
vn 0.2962 0.0008 0.9551
vn -0.0000 0.0008 1.0000
vn -0.0000 -1.0000 0.0008
vn 1.0000 0.0087 0.0028
vn 1.0000 0.0088 0.0029
vn 1.0000 0.0058 -0.0000
vn 0.9999 0.0117 0.0057
vn -1.0000 -0.0000 -0.0000
vn -0.9534 -0.0002 -0.3017
vn -0.2928 0.0008 0.9562
vn 0.9578 0.0002 0.2873
vn 0.2851 -0.0008 -0.9585
vt 0.000 0.000
s 1
f 2/1/1 4/1/1 1/1/1
f 5/1/2 7/1/2 8/1/2
f 10/1/3 12/1/3 9/1/3
f 14/1/4 16/1/4 13/1/4
f 18/1/5 20/1/5 17/1/5
f 2/1/1 3/1/1 4/1/1
f 5/1/2 6/1/2 7/1/2
f 10/1/3 11/1/3 12/1/3
f 14/1/4 15/1/4 16/1/4
f 18/1/5 19/1/5 20/1/5
f 21/1/6 23/1/6 24/1/6
f 21/1/6 22/1/6 23/1/6
f 26/1/7 28/1/7 25/1/7
f 26/1/7 27/1/7 28/1/7
f 30/1/1 32/1/1 29/1/1
f 30/1/1 31/1/1 32/1/1
f 33/1/8 35/1/9 36/1/10
f 33/1/8 34/1/11 35/1/9
f 38/1/12 40/1/12 37/1/12
f 38/1/12 39/1/12 40/1/12
f 41/1/1 43/1/1 44/1/1
f 46/1/13 48/1/13 45/1/13
f 50/1/14 52/1/14 49/1/14
f 54/1/15 56/1/15 53/1/15
f 58/1/16 60/1/16 57/1/16
f 41/1/1 42/1/1 43/1/1
f 46/1/13 47/1/13 48/1/13
f 50/1/14 51/1/14 52/1/14
f 54/1/15 55/1/15 56/1/15
f 58/1/16 59/1/16 60/1/16
