# Blender 5.0.1
# www.blender.org
o CornellBox-Original
v 0.757500 -0.750000 0.007500
v -0.750000 -0.750000 0.007500
v -0.750000 -0.750000 1.530000
v 0.742500 -0.750000 1.530000
v 0.765000 0.742500 0.007500
v 0.765000 0.742500 1.530000
v -0.750000 0.742500 1.530000
v -0.750000 0.742500 0.007500
v 0.742500 -0.750000 1.530000
v -0.750000 -0.750000 1.530000
v -0.750000 0.742500 1.530000
v 0.765000 0.742500 1.530000
v -0.750000 -0.750000 1.530000
v -0.750000 -0.750000 0.007500
v -0.750000 0.742500 0.007500
v -0.750000 0.742500 1.530000
v 0.757500 -0.750000 0.007500
v 0.742500 -0.750000 1.530000
v 0.765000 0.742500 1.530000
v 0.765000 0.742500 0.007500
v -0.397500 -0.300000 0.187500
v -0.525000 -0.300000 0.622500
v -0.097500 -0.300000 0.750000
v 0.037500 -0.300000 0.322500
v 0.037500 -0.750000 0.322500
v 0.037500 -0.300000 0.322500
v -0.097500 -0.300000 0.750000
v -0.097500 -0.750000 0.750000
v -0.397500 -0.750000 0.187500
v -0.397500 -0.300000 0.187500
v 0.037500 -0.300000 0.322500
v 0.037500 -0.750000 0.322500
v -0.525000 -0.750000 0.622500
v -0.525000 -0.300000 0.622500
v -0.397500 -0.300000 0.187500
v -0.397500 -0.750000 0.187500
v -0.097500 -0.750000 0.750000
v -0.097500 -0.300000 0.750000
v -0.525000 -0.300000 0.622500
v -0.525000 -0.750000 0.622500
v 0.397500 0.150000 0.682500
v -0.030000 0.150000 0.817500
v 0.105000 0.150000 1.252500
v 0.532500 0.150000 1.117500
v 0.397500 -0.750000 0.682500
v 0.397500 0.150000 0.682500
v 0.532500 0.150000 1.117500
v 0.532500 -0.750000 1.117500
v 0.532500 -0.750000 1.117500
v 0.532500 0.150000 1.117500
v 0.105000 0.150000 1.252500
v 0.105000 -0.750000 1.252500
v 0.105000 -0.750000 1.252500
v 0.105000 0.150000 1.252500
v -0.030000 0.150000 0.817500
v -0.030000 -0.750000 0.817500
v -0.030000 -0.750000 0.817500
v -0.030000 0.150000 0.817500
v 0.397500 0.150000 0.682500
v 0.397500 -0.750000 0.682500
v 0.180000 0.735000 0.630000
v 0.180000 0.735000 0.915000
v -0.172500 0.735000 0.915000
v -0.172500 0.735000 0.630000
vn -0.0000 1.0000 -0.0000
vn -0.0000 -1.0000 -0.0000
vn -0.0000 -0.0000 -1.0000
vn 1.0000 -0.0000 -0.0000
vn -1.0000 0.0050 -0.0000
vn 0.9536 -0.0000 0.3011
vn 0.2964 -0.0000 -0.9551
vn -0.9596 -0.0000 -0.2813
vn -0.2858 -0.0000 0.9583
vn 0.9551 -0.0000 -0.2964
vn 0.3011 -0.0000 0.9536
vn -0.9551 -0.0000 0.2964
vn -0.3011 -0.0000 -0.9536
vn -0.9998 0.0151 -0.0099
vt 0.000 0.000
s 0
f 2/1/1 4/1/1 1/1/1
f 6/1/2 8/1/2 5/1/2
f 9/1/3 11/1/3 12/1/3
f 14/1/4 16/1/4 13/1/4
f 17/1/5 19/1/5 20/1/5
f 21/1/1 23/1/1 24/1/1
f 26/1/6 28/1/6 25/1/6
f 30/1/7 32/1/7 29/1/7
f 34/1/8 36/1/8 33/1/8
f 38/1/9 40/1/9 37/1/9
f 42/1/1 44/1/1 41/1/1
f 46/1/10 48/1/10 45/1/10
f 50/1/11 52/1/11 49/1/11
f 54/1/12 56/1/12 53/1/12
f 58/1/13 60/1/13 57/1/13
f 62/1/2 64/1/2 61/1/2
f 2/1/1 3/1/1 4/1/1
f 6/1/2 7/1/2 8/1/2
f 9/1/3 10/1/3 11/1/3
f 14/1/4 15/1/4 16/1/4
f 17/1/14 18/1/14 19/1/14
f 21/1/1 22/1/1 23/1/1
f 26/1/6 27/1/6 28/1/6
f 30/1/7 31/1/7 32/1/7
f 34/1/8 35/1/8 36/1/8
f 38/1/9 39/1/9 40/1/9
f 42/1/1 43/1/1 44/1/1
f 46/1/10 47/1/10 48/1/10
f 50/1/11 51/1/11 52/1/11
f 54/1/12 55/1/12 56/1/12
f 58/1/13 59/1/13 60/1/13
f 62/1/2 63/1/2 64/1/2
