# Blender 5.0.1
# www.blender.org
o Window1
v 7.395711 1.317206 2.223144
v 7.395711 -0.682794 2.223144
v 7.395711 1.317206 1.412098
v 7.395711 -0.682794 1.412098
vn 1.0000 -0.0000 -0.0000
vt 1.000000 0.000000
vt 0.000000 1.000000
vt 0.000000 0.000000
vt 1.000000 1.000000
s 0
f 2/1/1 3/2/1 1/3/1
f 2/1/1 4/4/1 3/2/1
o Center
v -2.612252 20.434130 5.293017
v -2.612252 20.434130 10.293017
v 2.387748 20.434126 5.293017
v 2.387748 20.434126 10.293017
vn -0.0000 1.0000 -0.0000
vt 1.000000 0.000000
vt 0.000000 1.000000
vt 0.000000 0.000000
vt 1.000000 1.000000
s 0
f 6/5/2 7/6/2 5/7/2
f 6/5/2 8/8/2 7/6/2
o Window2
v 3.759049 11.709296 2.223144
v 3.759049 9.709296 2.223144
v 3.759049 11.709296 1.412098
v 3.759049 9.709296 1.412098
vn 1.0000 -0.0000 -0.0000
vt 1.000000 0.000000
vt 0.000000 1.000000
vt 0.000000 0.000000
vt 1.000000 1.000000
s 0
f 10/9/3 11/10/3 9/11/3
f 10/9/3 12/12/3 11/10/3
o Window3
v -3.801693 9.709296 2.223144
v -3.801693 11.709296 2.223144
v -3.801693 9.709296 1.412098
v -3.801693 11.709296 1.412098
vn -1.0000 -0.0000 -0.0000
vt 1.000000 0.000000
vt 0.000000 1.000000
vt 0.000000 0.000000
vt 1.000000 1.000000
s 0
f 14/13/4 15/14/4 13/15/4
f 14/13/4 16/16/4 15/14/4
o WindowRound
v -1.405226 8.556389 -18.385536
v -1.405225 11.142336 -18.385536
v 1.180722 8.556389 -18.385532
v 1.180722 11.142336 -18.385532
vn -0.0000 -0.0000 1.0000
vt 0.000000 1.000000
vt 1.000000 0.000000
vt 0.000000 0.000000
vt 1.000000 1.000000
s 0
f 19/17/5 18/18/5 17/19/5
f 19/17/5 20/20/5 18/18/5
